<svg width="60" height="60" fill="#666666" viewBox="0 0 24 24" xmlns="http://www.w3.org/2000/svg">
 <path d="M19.106 5.43c-1.503-1.64-3.725-2.508-6.426-2.508-2.39 0-4.72.928-6.554 2.614-1.834 1.685-2.96 3.93-3.17 6.32-.214 2.422.534 4.7 2.106 6.417 1.564 1.708 3.753 2.649 6.164 2.649 1.524 0 2.513-.11 4.007-.738l.691-.291-.581-1.383-.692.29c-1.272.534-2.052.62-3.425.62-1.985 0-3.78-.767-5.058-2.16-1.284-1.403-1.894-3.276-1.718-5.273.367-4.172 4.06-7.566 8.23-7.566 2.269 0 4.108.699 5.32 2.022 1.153 1.26 1.668 2.996 1.49 5.022-.154 1.751-.833 2.613-1.374 3.028-.516.396-1.032.478-1.313.428-.829-.147-1.26-.96-1.153-2.17l.466-5.115-1.496-.133-.094 1.045a3.736 3.736 0 0 0-2.687-1.125c-1.115 0-2.181.472-3 1.33-.786.821-1.276 1.924-1.38 3.104-.115 1.306.27 2.547 1.055 3.405a3.568 3.568 0 0 0 2.666 1.16 4.359 4.359 0 0 0 3.35-1.513 2.812 2.812 0 0 0 2.01 1.491c.793.14 1.723-.126 2.489-.713 1.415-1.084 1.845-2.821 1.957-4.087.212-2.424-.455-4.613-1.88-6.17Zm-5.922 8.719a2.915 2.915 0 0 1-2.007.775 2.06 2.06 0 0 1-1.56-.674c-.502-.549-.745-1.372-.667-2.26.151-1.72 1.42-3.066 2.888-3.066a2.258 2.258 0 0 1 1.682.741c.51.557.76 1.354.686 2.19-.084.951-.438 1.742-1.022 2.292v.002Z"></path>
</svg>