<svg width="60" height="60" fill="#666666" viewBox="0 0 24 24" xmlns="http://www.w3.org/2000/svg">
  <path
    d="M21.729 12.756h-2.98v-2.26c0-.134-.003-.267-.012-.396 1.386-1.307 1.512-3.03 1.513-4.828a.764.764 0 0 0-.715-.77.75.75 0 0 0-.785.748c0 1.313-.087 2.257-.464 2.992-.901-1.928-3.084-2.995-6.286-2.995-1.866 0-3.478.428-4.66 1.237a4.724 4.724 0 0 0-1.58 1.768c-.416-.722-.51-1.643-.51-2.98 0-.404-.31-.75-.713-.771a.75.75 0 0 0-.787.749c0 1.764.122 3.456 1.52 4.764a5.83 5.83 0 0 0-.02.483v2.26H2.27c-.404 0-.75.31-.77.713a.75.75 0 0 0 .75.786h3V15c0 .862.165 1.717.487 2.517-1.203 1.076-1.98 2.264-1.988 4.202 0 .41.31.764.72.78a.748.748 0 0 0 .78-.749c0-1.297.426-2.096 1.227-2.874a6.767 6.767 0 0 0 3.835 2.66.75.75 0 0 0 .938-.727V9.021c0-.404.31-.75.714-.77A.75.75 0 0 1 12.75 9v11.81a.75.75 0 0 0 .937.725 6.768 6.768 0 0 0 3.836-2.66c.797.776 1.223 1.572 1.227 2.858a.762.762 0 0 0 .707.767.75.75 0 0 0 .793-.75c0-1.954-.778-3.151-1.987-4.233.322-.8.488-1.655.487-2.517v-.744h3a.75.75 0 0 0 .75-.786.765.765 0 0 0-.771-.714Z">
  </path>
  <path
    d="m15.066 4.875.014.004c.637.178 1.176-.494.854-1.07A4.493 4.493 0 0 0 12.01 1.5h-.02a4.494 4.494 0 0 0-3.946 2.35c-.32.59.241 1.265.883 1.071.924-.28 1.96-.424 3.073-.424 1.13 0 2.16.127 3.066.378Z">
  </path>
</svg>