<svg width="60" height="60" fill="#666666" viewBox="0 0 24 24" xmlns="http://www.w3.org/2000/svg">
  <path
    d="M19.5 2h-15A2.5 2.5 0 0 0 2 4.5v15A2.5 2.5 0 0 0 4.5 22h15a2.5 2.5 0 0 0 2.5-2.5v-15A2.5 2.5 0 0 0 19.5 2ZM3.25 6.821c0-.591.56-1.071 1.25-1.071h15c.69 0 1.25.48 1.25 1.071V19.68c0 .591-.56 1.071-1.25 1.071h-15c-.69 0-1.25-.48-1.25-1.071V6.82Z">
  </path>
  <path
    d="M10.125 10.75a1.25 1.25 0 1 0 0-2.5 1.25 1.25 0 0 0 0 2.5Zm3.75 0a1.25 1.25 0 1 0 0-2.5 1.25 1.25 0 0 0 0 2.5Zm3.75 0a1.25 1.25 0 1 0 0-2.5 1.25 1.25 0 0 0 0 2.5ZM6.375 14.5a1.25 1.25 0 1 0 0-2.5 1.25 1.25 0 0 0 0 2.5Zm3.75 0a1.25 1.25 0 1 0 0-2.5 1.25 1.25 0 0 0 0 2.5Zm3.75 0a1.25 1.25 0 1 0 0-2.5 1.25 1.25 0 0 0 0 2.5Zm3.75 0a1.25 1.25 0 1 0 0-2.5 1.25 1.25 0 0 0 0 2.5Zm-11.25 3.75a1.25 1.25 0 1 0 0-2.5 1.25 1.25 0 0 0 0 2.5Zm3.75 0a1.25 1.25 0 1 0 0-2.5 1.25 1.25 0 0 0 0 2.5Zm3.75 0a1.25 1.25 0 1 0 0-2.5 1.25 1.25 0 0 0 0 2.5Z">
  </path>
</svg>