<svg width="60" height="60" fill="#666666" viewBox="0 0 24 24" xmlns="http://www.w3.org/2000/svg">
  <path fill-rule="evenodd"
    d="M12.055 3.055a.599.599 0 0 1 .85 0l2.4 2.4a.602.602 0 0 1-.425 1.026.6.6 0 0 1-.425-.176L13.08 4.928V9.48a.6.6 0 1 1-1.2 0V4.928l-1.375 1.377a.6.6 0 0 1-.85-.85l2.4-2.4Zm.425 11.825a.6.6 0 0 1 .6.6v4.552l1.375-1.377a.6.6 0 1 1 .85.85l-2.4 2.4a.6.6 0 0 1-.85 0l-2.4-2.4a.6.6 0 0 1 .85-.85l1.375 1.377V15.48a.6.6 0 0 1 .6-.6Zm-9.425-1.975a.6.6 0 0 1 0-.85l2.4-2.4a.6.6 0 1 1 .85.85L4.928 11.88H9.48a.6.6 0 1 1 0 1.2H4.928l1.377 1.375a.6.6 0 1 1-.85.85l-2.4-2.4Zm11.825-.425a.6.6 0 0 1 .6-.6h4.552l-1.377-1.375a.6.6 0 1 1 .85-.85l2.4 2.4a.6.6 0 0 1 0 .85l-2.4 2.4a.602.602 0 0 1-1.026-.425.602.602 0 0 1 .176-.425l1.377-1.375H15.48a.6.6 0 0 1-.6-.6Z"
    clip-rule="evenodd"></path>
</svg>